General
Complete name                            : Detachment.(2011).BRRip.480p.x264.Eng.AAC.5.1.AMX.mp4
Format                                   : MPEG-4
Format profile                           : Base Media
Codec ID                                 : isom
File size                                : 1.31 GiB
Duration                                 : 1h 37mn
Overall bit rate mode                    : Variable
Overall bit rate                         : 1 917 Kbps
Video
ID                                       : 1
Format                                   : AVC
Format/Info                              : Advanced Video Codec
Format profile                           : High@L3.1
Format settings, CABAC                   : Yes
Format settings, ReFrames                : 8 frames
Codec ID                                 : avc1
Codec ID/Info                            : Advanced Video Coding
Duration                                 : 1h 37mn
Bit rate                                 : 1 594 Kbps
Maximum bit rate                         : 8 743 Kbps
Width                                    : 720 pixels
Height                                   : 384 pixels
Display aspect ratio                     : 1.85:1
Frame rate mode                          : Constant
Frame rate                               : 23.976 fps
Color space                              : YUV
Chroma subsampling                       : 4:2:0
Bit depth                                : 8 bits
Scan type                                : Progressive
Bits/(Pixel*Frame)                       : 0.240
Stream size                              : 1.09 GiB (83%)
Writing library                          : x264 core 125 r2200 999b753

Audio
ID                                       : 2
Format                                   : AAC
Format/Info                              : Advanced Audio Codec
Format profile                           : LC
Codec ID                                 : 40
Duration                                 : 1h 37mn
Bit rate mode                            : Variable
Bit rate                                 : 319 Kbps
Maximum bit rate                         : 374 Kbps
Channel(s)                               : 6 channels
Channel positions                        : Front: L C R, Side: L R, LFE
Sampling rate                            : 48.0 KHz
Compression mode                         : Lossy
Stream size                              : 223 MiB (17%)
Language                                 : English
